<svg version="1.1" id="Layer_1" xmlns="http://www.w3.org/2000/svg" xmlns:xlink="http://www.w3.org/1999/xlink" x="0px" y="0px"
	 viewBox="0 0 701.06 701.06" style="enable-background:new 0 0 701.06 701.06;" xml:space="preserve">
<style type="text/css">
	.st0{fill:#FFFFFF;}
	.st1{fill:#6B6B6B;}
	.st2{fill:#22803F;}
	.st3{fill:#50B848;}
</style>
<path class="st0" d="M1688.66,1340.63c0,193.59-156.94,350.53-350.53,350.53S987.6,1534.22,987.6,1340.63
	s156.94-350.53,350.53-350.53S1688.66,1147.04,1688.66,1340.63z M1338.13,1207.29c-73.64,0-133.34,59.7-133.34,133.34
	c0,73.64,59.7,133.34,133.34,133.34c73.64,0,133.34-59.7,133.34-133.34C1471.47,1266.99,1411.77,1207.29,1338.13,1207.29z"/>
<g>
	<path d="M1074.29,1514.83l-43.31-74.82l13.12-7.59l35.13,60.7l37.33-21.6l-32.8-56.66l13.12-7.59l32.8,56.66l42.37-24.52
		l-36.88-63.73l13.12-7.59l45.06,77.85L1074.29,1514.83z"/>
	<path class="st1" d="M1187.43,1449.35l-45.06-77.85l5.91-3.42l45.06,77.85L1187.43,1449.35z M1123.77,1467.34l-32.8-56.66
		l5.91-3.42l32.8,56.66L1123.77,1467.34z M1073.33,1496.53l-35.13-60.7l5.91-3.42l35.13,60.7L1073.33,1496.53z"/>
</g>
<g>
	<path d="M1162.02,1076.01l14.95-6.55l23.38,53.39l67.27-29.46l-23.38-53.39l14.95-6.55l55.18,125.99l-14.95,6.55l-25.72-58.73
		l-67.27,29.46l25.72,58.73l-14.95,6.55L1162.02,1076.01z"/>
	<path class="st1" d="M1229.27,1188.87l2.88,6.58l-14.95,6.55l-2.88-6.58L1229.27,1188.87z M1311.48,1152.86l2.88,6.58l-14.95,6.55
		l-2.88-6.58L1311.48,1152.86z M1203.69,1130.48l67.27-29.46l2.74,6.25l-67.27,29.46L1203.69,1130.48z"/>
</g>
<g>
	<path d="M1645.27,1450.21l-13.77,20l-115.26-22.72l-0.22,0.32l62.17,99.86l-13.44,19.52l-113.31-77.98l9.25-13.44l95.06,65.43
		l0.22-0.32l-67.09-106.08l5.62-8.16l123.04,24.78l0.22-0.32l-95.06-65.43l9.25-13.44L1645.27,1450.21z"/>
	<path class="st1" d="M1528.65,1389.75l-5.94-4.09l9.25-13.44l5.94,4.09L1528.65,1389.75z M1493.07,1441.45l-4.17-6.65l5.62-8.16
		l7.7,1.52 M1457.39,1493.3l-5.94-4.09l9.25-13.44l5.94,4.09"/>
</g>
<g>
	<path d="M1402.69,1644.94l-15.08,2.87l-83.19-124.17l18.7-3.56l20.07,30.59l67.56-12.87l7.61-35.86l18.13-3.45L1402.69,1644.94z
		 M1391.51,1625.71l0.38-0.07l15.4-71.76l-55.15,10.51L1391.51,1625.71z"/>
	<path class="st1" d="M1434.95,1505.14l-18,3.43l1.41-6.65l18.13-3.45L1434.95,1505.14 M1308.27,1529.28l-3.85-5.64l18.7-3.56
		l3.72,5.67L1308.27,1529.28 M1307.87,1529.36 M1408.35,1544.6l-60.61,11.55l-4.55-5.49l67.56-12.87L1408.35,1544.6z"/>
</g>
<g>
	<g>
		<g>
			<path d="M1495.42,1273.81c-7.14-7.68-12.36-15.97-15.65-24.84c-3.3-8.87-4.78-17.84-4.44-26.9c0.33-9.06,2.53-17.92,6.61-26.56
				c4.07-8.65,9.91-16.5,17.5-23.55c7.59-7.05,15.85-12.3,24.77-15.72c8.92-3.43,17.92-4.98,26.98-4.65
				c9.06,0.33,17.89,2.47,26.5,6.4c8.61,3.94,16.48,9.75,23.62,17.43c7.14,7.69,12.36,15.97,15.65,24.84
				c3.29,8.87,4.78,17.84,4.44,26.9c-0.33,9.06-2.54,17.91-6.61,26.56c-4.08,8.65-9.91,16.5-17.5,23.55
				c-7.59,7.05-15.85,12.29-24.77,15.72c-8.93,3.43-17.92,4.98-26.98,4.65s-17.9-2.47-26.5-6.4
				C1510.43,1287.3,1502.56,1281.49,1495.42,1273.81z M1506.52,1263.49c5.47,5.88,11.56,10.25,18.28,13.11
				c6.72,2.86,13.61,4.28,20.67,4.26c7.05-0.02,14.03-1.41,20.91-4.18c6.88-2.77,13.22-6.85,19.01-12.22
				c5.79-5.38,10.31-11.4,13.58-18.06c3.27-6.66,5.17-13.51,5.7-20.55c0.53-7.04-0.38-14.01-2.74-20.93
				c-2.36-6.91-6.27-13.31-11.74-19.19c-5.47-5.88-11.56-10.25-18.28-13.11c-6.73-2.86-13.62-4.28-20.67-4.26
				c-7.06,0.02-14.03,1.41-20.91,4.18c-6.89,2.77-13.22,6.85-19.01,12.22c-5.79,5.38-10.32,11.4-13.58,18.06
				c-3.27,6.66-5.17,13.51-5.7,20.55c-0.54,7.04,0.38,14.01,2.74,20.93C1497.14,1251.21,1501.05,1257.61,1506.52,1263.49z"/>
		</g>
	</g>
	<g>
		<path class="st1" d="M1501.36,1268.7c-6.34-6.82-10.97-14.17-13.89-22.04c-2.93-7.87-4.24-15.83-3.94-23.87s2.25-15.9,5.87-23.58
			c3.62-7.68,8.79-14.64,15.53-20.9c6.74-6.26,14.06-10.91,21.98-13.96c7.92-3.04,15.9-4.42,23.94-4.12
			c8.04,0.3,15.88,2.19,23.52,5.68c7.64,3.49,14.63,8.65,20.97,15.47c6.34,6.82,10.97,14.17,13.89,22.04
			c2.92,7.88,4.24,15.83,3.94,23.87c-0.3,8.04-2.25,15.9-5.87,23.58c-3.62,7.67-8.79,14.64-15.53,20.9
			c-6.74,6.26-14.07,10.91-21.98,13.96c-7.92,3.04-15.9,4.42-23.94,4.12c-8.04-0.3-15.88-2.19-23.52-5.68
			C1514.68,1280.68,1507.69,1275.52,1501.36,1268.7z M1506.52,1263.49c5.47,5.88,11.56,10.25,18.28,13.11
			c6.72,2.86,13.61,4.28,20.67,4.26c7.05-0.02,14.03-1.41,20.91-4.18c6.88-2.77,13.22-6.85,19.01-12.22
			c5.79-5.38,10.31-11.4,13.58-18.06c3.27-6.66,5.17-13.51,5.7-20.55c0.53-7.04-0.38-14.01-2.74-20.93
			c-2.36-6.91-6.27-13.31-11.74-19.19c-5.47-5.88-11.56-10.25-18.28-13.11c-6.73-2.86-13.62-4.28-20.67-4.26
			c-7.06,0.02-14.03,1.41-20.91,4.18c-6.89,2.77-13.22,6.85-19.01,12.22c-5.79,5.38-10.32,11.4-13.58,18.06
			c-3.27,6.66-5.17,13.51-5.7,20.55c-0.54,7.04,0.38,14.01,2.74,20.93C1497.14,1251.21,1501.05,1257.61,1506.52,1263.49z"/>
	</g>
	<g>
		<g>
			<path class="st2" d="M1510.8,1320.83c40.61-10.35,119-8.05,119-8.05l1.66-20.21c0,0-25.19-5.11-112.15,20.34
				c19.14-41.37,14.44-61.6,14.44-61.6l-20.28,0.18C1513.49,1251.49,1521.65,1288.23,1510.8,1320.83z"/>
		</g>
		<path class="st3" d="M1630.76,1301.8l0.76-9.18c0,0-25.19-5.11-112.15,20.34c19.14-41.37,14.44-61.6,14.44-61.6l-10.19,0.12
			c1.75,12.56-0.54,41.88-8.32,65.26C1548.1,1308.37,1609.87,1301.53,1630.76,1301.8z"/>
	</g>
</g>
<g>
	<path d="M1417.21,1036.2l77.71,37.88l-6.64,13.62l-63.05-30.73l-18.9,38.77l58.85,28.68l-6.64,13.62l-58.85-28.68l-21.45,44.01
		l66.19,32.26l-6.64,13.62l-80.86-39.41L1417.21,1036.2z"/>
	<path class="st1" d="M1359.94,1153.71l80.86,39.41l-2.99,6.14l-80.86-39.41L1359.94,1153.71z M1402.7,1103.23l58.85,28.68
		l-2.99,6.14l-58.85-28.68L1402.7,1103.23z M1428.23,1050.84l63.05,30.73l-2.99,6.14l-63.05-30.73L1428.23,1050.84z"/>
</g>
<g>
	<g>
		<g>
			<path d="M1178.1,1206.45c1.28,2.57,2.38,5.22,3.31,7.94c2.92,8.58,4.08,17.6,3.48,27.04c-0.6,9.44-3.22,18.88-7.85,28.29
				c-4.63,9.41-10.5,17.24-17.61,23.49c-7.11,6.24-14.96,10.83-23.54,13.76c-8.58,2.92-17.64,4.03-27.17,3.31
				c-9.53-0.72-18.95-3.36-28.25-7.94c-9.3-4.57-17.14-10.41-23.53-17.52c-6.39-7.11-11.05-14.96-13.97-23.54s-4.08-17.6-3.48-27.04
				c0.6-9.44,3.22-18.88,7.85-28.29c4.63-9.42,10.5-17.24,17.61-23.49c7.11-6.24,14.96-10.83,23.54-13.76
				c2.72-0.93,5.49-1.67,8.31-2.23l1.97,16.99c-2.37,0.14-5.52,1.33-5.52,1.33c-6.76,2.02-12.95,5.36-18.57,10.03
				c-5.62,4.67-10.2,10.61-13.74,17.82c-3.54,7.21-5.45,14.46-5.72,21.76c-0.27,7.3,0.86,14.25,3.4,20.83
				c2.53,6.59,6.33,12.6,11.37,18.04c5.05,5.44,11.12,9.9,18.21,13.39c7.09,3.49,14.33,5.57,21.72,6.24
				c7.39,0.68,14.47,0.01,21.23-2.01c6.76-2.01,12.95-5.36,18.57-10.03c5.61-4.67,10.19-10.61,13.74-17.82
				c3.54-7.21,5.45-14.46,5.72-21.76c0.27-7.3-0.86-14.24-3.4-20.83c0,0-0.98-3.22-2.32-5.19L1178.1,1206.45"/>
		</g>
	</g>
	<g>
		<path class="st1" d="M1171.22,1211.09 M1163.42,1215.32 M1171.22,1211.09c0.84,1.82,1.59,3.69,2.24,5.59
			c2.6,7.62,3.62,15.62,3.09,24c-0.54,8.38-2.86,16.75-6.97,25.11c-4.11,8.36-9.32,15.3-15.63,20.85
			c-6.31,5.54-13.28,9.61-20.89,12.21c-7.62,2.6-15.66,3.57-24.12,2.94c-8.46-0.64-16.54-2.86-24.79-6.92
			c-8.25-4.06-14.95-9.09-20.62-15.41c-5.67-6.31-9.81-13.28-12.4-20.89c-2.6-7.62-3.62-15.62-3.09-24
			c0.54-8.38,2.86-16.75,6.97-25.11c4.11-8.36,9.32-15.3,15.63-20.85c6.31-5.54,13.28-9.61,20.89-12.21c1.9-0.65,3.83-1.2,5.79-1.64
			l1.42,8.76c-1.53,0.31-3.7,0.79-5.52,1.33c-6.76,2.02-12.95,5.36-18.57,10.03c-5.62,4.67-10.2,10.61-13.74,17.82
			c-3.54,7.21-5.45,14.46-5.72,21.76c-0.27,7.3,0.86,14.25,3.4,20.83c2.53,6.59,6.33,12.6,11.37,18.04
			c5.05,5.44,11.12,9.9,18.21,13.39c7.09,3.49,14.33,5.57,21.72,6.24c7.39,0.68,14.47,0.01,21.23-2.01
			c6.76-2.01,12.95-5.36,18.57-10.03c5.61-4.67,10.19-10.61,13.74-17.82c3.54-7.21,5.45-14.46,5.72-21.76
			c0.27-7.3-0.86-14.24-3.4-20.83c-0.68-1.77-1.63-3.79-2.32-5.19l7.67-4.61"/>
	</g>
</g>
<g>
	<path d="M1143.65,1572.03l38.51,24.16l65.06-103.67l13.82,8.67l-65.06,103.67l38.51,24.16l-8.05,12.84l-90.84-57L1143.65,1572.03z"
		/>
	<path class="st1" d="M1192.95,1609.71l3.04-4.84l38.51,24.16l-3.04,4.84L1192.95,1609.71z M1243.9,1497.82l3.32-5.29l13.82,8.67
		l-3.32,5.29L1243.9,1497.82z M1140.62,1576.87l3.04-4.84l38.51,24.16l-3.04,4.84L1140.62,1576.87z"/>
</g>
<path class="st0" d="M701.06,350.53c0,193.59-156.94,350.53-350.53,350.53S0,544.12,0,350.53S156.94,0,350.53,0
	S701.06,156.94,701.06,350.53z M350.53,217.19c-73.64,0-133.34,59.7-133.34,133.34s59.7,133.34,133.34,133.34
	s133.34-59.7,133.34-133.34S424.17,217.19,350.53,217.19z"/>
<g>
	<path d="M86.69,524.73L43.39,449.9l13.12-7.59l35.13,60.7l37.33-21.6l-32.8-56.66l13.12-7.59l32.8,56.66l42.37-24.52l-36.88-63.73
		l13.12-7.59l45.06,77.85L86.69,524.73z"/>
	<path class="st1" d="M199.83,459.25l-45.06-77.85l5.91-3.42l45.06,77.85L199.83,459.25z M136.17,477.24l-32.8-56.66l5.91-3.42
		l32.8,56.66L136.17,477.24z M85.73,506.43l-35.13-60.7l5.91-3.42l35.13,60.7L85.73,506.43z"/>
</g>
<g>
	<path d="M174.42,85.91l14.95-6.55l23.38,53.39l67.27-29.46L256.64,49.9l14.95-6.55l55.18,125.99l-14.95,6.55l-25.72-58.73
		l-67.27,29.46l25.72,58.73l-14.95,6.55L174.42,85.91z"/>
	<path class="st1" d="M241.67,198.77l2.88,6.58l-14.95,6.55l-2.88-6.58L241.67,198.77z M323.88,162.76l2.88,6.58l-14.95,6.55
		l-2.88-6.58L323.88,162.76z M216.09,140.38l67.27-29.46l2.74,6.25l-67.27,29.46L216.09,140.38z"/>
</g>
<g>
	<path d="M657.67,460.11l-13.77,20l-115.26-22.72l-0.22,0.32l62.17,99.86l-13.44,19.52l-113.31-77.98l9.25-13.44l95.06,65.43
		l0.22-0.32L501.3,444.7l5.62-8.16l123.04,24.78l0.22-0.32l-95.06-65.43l9.25-13.44L657.67,460.11z"/>
	<path class="st1" d="M541.05,399.65l-5.94-4.09l9.25-13.44l5.94,4.09L541.05,399.65z M505.47,451.35l-4.17-6.65l5.62-8.16l7.7,1.52
		 M469.78,503.2l-5.94-4.09l9.25-13.44l5.94,4.09"/>
</g>
<g>
	<path d="M415.09,654.83l-15.08,2.87l-83.19-124.17l18.7-3.56l20.07,30.59l67.56-12.87l7.61-35.86l18.13-3.45L415.09,654.83z
		 M403.91,635.6l0.38-0.07l15.4-71.76l-55.15,10.51L403.91,635.6z"/>
	<path class="st1" d="M447.35,515.04l-18,3.43l1.41-6.65l18.13-3.45L447.35,515.04 M320.67,539.18l-3.85-5.64l18.7-3.56l3.72,5.67
		L320.67,539.18 M320.27,539.26 M420.75,554.5l-60.61,11.55l-4.55-5.49l67.56-12.87L420.75,554.5z"/>
</g>
<g>
	<g>
		<g>
			<path d="M507.82,283.71c-7.14-7.68-12.36-15.97-15.65-24.84c-3.3-8.87-4.78-17.84-4.44-26.9c0.33-9.06,2.53-17.92,6.61-26.56
				c4.07-8.65,9.91-16.5,17.5-23.55c7.59-7.05,15.85-12.3,24.77-15.73c8.92-3.43,17.92-4.98,26.98-4.65
				c9.06,0.33,17.89,2.47,26.5,6.4c8.61,3.94,16.48,9.75,23.62,17.43c7.14,7.69,12.36,15.97,15.65,24.84
				c3.29,8.87,4.78,17.84,4.44,26.9c-0.33,9.06-2.54,17.91-6.61,26.56c-4.08,8.65-9.91,16.5-17.5,23.55
				c-7.59,7.05-15.85,12.29-24.77,15.73c-8.93,3.43-17.92,4.98-26.98,4.65c-9.06-0.33-17.9-2.47-26.5-6.4
				C522.83,297.2,514.96,291.39,507.82,283.71z M518.92,273.39c5.47,5.88,11.56,10.25,18.28,13.11c6.72,2.86,13.61,4.28,20.67,4.26
				c7.05-0.02,14.03-1.41,20.91-4.18c6.88-2.77,13.22-6.85,19.01-12.22c5.79-5.38,10.31-11.4,13.58-18.06
				c3.27-6.66,5.17-13.51,5.7-20.55c0.53-7.04-0.38-14.01-2.74-20.93c-2.36-6.91-6.27-13.31-11.74-19.19
				c-5.47-5.88-11.56-10.25-18.28-13.11c-6.73-2.86-13.62-4.28-20.67-4.26c-7.06,0.02-14.03,1.41-20.91,4.18
				c-6.88,2.77-13.22,6.85-19.01,12.22c-5.79,5.38-10.32,11.4-13.58,18.06c-3.27,6.66-5.17,13.51-5.7,20.55
				c-0.54,7.04,0.38,14.01,2.74,20.93C509.54,261.11,513.45,267.51,518.92,273.39z"/>
		</g>
	</g>
	<g>
		<path class="st1" d="M513.76,278.6c-6.34-6.82-10.97-14.17-13.89-22.04c-2.93-7.87-4.24-15.83-3.94-23.87s2.25-15.9,5.87-23.58
			c3.62-7.68,8.79-14.64,15.53-20.9c6.74-6.26,14.06-10.91,21.98-13.96c7.92-3.04,15.9-4.42,23.94-4.12
			c8.04,0.3,15.88,2.19,23.52,5.68c7.64,3.49,14.63,8.65,20.97,15.47c6.34,6.82,10.97,14.17,13.89,22.04
			c2.92,7.88,4.24,15.83,3.94,23.87c-0.3,8.04-2.25,15.9-5.87,23.58c-3.62,7.67-8.79,14.64-15.53,20.9
			c-6.74,6.26-14.07,10.91-21.98,13.96c-7.92,3.04-15.9,4.42-23.94,4.12s-15.88-2.19-23.52-5.68
			C527.08,290.58,520.09,285.42,513.76,278.6z M518.92,273.39c5.47,5.88,11.56,10.25,18.28,13.11c6.72,2.86,13.61,4.28,20.67,4.26
			c7.05-0.02,14.03-1.41,20.91-4.18c6.88-2.77,13.22-6.85,19.01-12.22c5.79-5.38,10.31-11.4,13.58-18.06
			c3.27-6.66,5.17-13.51,5.7-20.55c0.53-7.04-0.38-14.01-2.74-20.93c-2.36-6.91-6.27-13.31-11.74-19.19
			c-5.47-5.88-11.56-10.25-18.28-13.11c-6.73-2.86-13.62-4.28-20.67-4.26c-7.06,0.02-14.03,1.41-20.91,4.18
			c-6.88,2.77-13.22,6.85-19.01,12.22c-5.79,5.38-10.32,11.4-13.58,18.06c-3.27,6.66-5.17,13.51-5.7,20.55
			c-0.54,7.04,0.38,14.01,2.74,20.93C509.54,261.11,513.45,267.51,518.92,273.39z"/>
	</g>
	<g>
		<g>
			<path class="st2" d="M523.2,330.73c40.61-10.35,119-8.05,119-8.05l1.66-20.21c0,0-25.19-5.11-112.15,20.34
				c19.14-41.37,14.44-61.6,14.44-61.6l-20.28,0.18C525.89,261.38,534.05,298.13,523.2,330.73z"/>
		</g>
		<path class="st3" d="M643.15,311.69l0.76-9.18c0,0-25.19-5.11-112.15,20.34c19.14-41.37,14.44-61.6,14.44-61.6l-10.19,0.12
			c1.75,12.56-0.54,41.88-8.32,65.26C560.5,318.27,622.27,311.42,643.15,311.69z"/>
	</g>
</g>
<g>
	<path d="M429.61,46.1l77.71,37.88l-6.64,13.62l-63.05-30.73l-18.9,38.77l58.85,28.68l-6.64,13.62l-58.85-28.68l-21.45,44.01
		l66.19,32.26l-6.64,13.62l-80.86-39.41L429.61,46.1z"/>
	<path class="st1" d="M372.34,163.61l80.86,39.41l-2.99,6.14l-80.86-39.41L372.34,163.61z M415.1,113.13l58.85,28.68l-2.99,6.14
		l-58.85-28.68L415.1,113.13z M440.63,60.73l63.05,30.73l-2.99,6.14l-63.05-30.73L440.63,60.73z"/>
</g>
<g>
	<g>
		<g>
			<path d="M190.5,216.35c1.28,2.57,2.38,5.22,3.31,7.94c2.92,8.58,4.08,17.6,3.48,27.04c-0.6,9.44-3.22,18.87-7.85,28.29
				c-4.63,9.41-10.5,17.24-17.61,23.49c-7.11,6.24-14.96,10.83-23.54,13.76c-8.58,2.92-17.64,4.03-27.17,3.31
				c-9.53-0.72-18.95-3.36-28.25-7.94c-9.3-4.57-17.14-10.41-23.53-17.52c-6.39-7.11-11.05-14.96-13.97-23.54
				c-2.92-8.58-4.08-17.6-3.48-27.04c0.6-9.44,3.22-18.88,7.85-28.29c4.63-9.42,10.5-17.24,17.61-23.49
				c7.11-6.24,14.96-10.83,23.54-13.76c2.72-0.93,5.49-1.67,8.31-2.23l1.97,16.99c-2.37,0.14-5.52,1.33-5.52,1.33
				c-6.76,2.02-12.95,5.36-18.57,10.03c-5.62,4.67-10.2,10.61-13.74,17.82c-3.54,7.21-5.45,14.46-5.72,21.76
				c-0.27,7.3,0.86,14.25,3.4,20.83c2.53,6.59,6.33,12.6,11.37,18.04c5.05,5.44,11.12,9.9,18.21,13.39s14.33,5.57,21.72,6.24
				c7.39,0.68,14.47,0.01,21.23-2.01c6.76-2.01,12.95-5.36,18.57-10.03c5.61-4.67,10.19-10.61,13.74-17.82
				c3.54-7.21,5.45-14.46,5.72-21.76c0.27-7.3-0.86-14.24-3.4-20.83c0,0-0.98-3.22-2.32-5.19L190.5,216.35"/>
		</g>
	</g>
	<g>
		<path class="st1" d="M183.62,220.99 M175.82,225.21 M183.62,220.99c0.84,1.82,1.59,3.69,2.24,5.59c2.6,7.62,3.62,15.62,3.09,24
			c-0.54,8.38-2.86,16.75-6.97,25.11c-4.11,8.36-9.32,15.3-15.63,20.85c-6.31,5.54-13.28,9.61-20.89,12.21
			c-7.62,2.6-15.66,3.57-24.12,2.94c-8.46-0.64-16.54-2.86-24.79-6.92s-14.95-9.09-20.62-15.41c-5.67-6.31-9.81-13.28-12.4-20.89
			s-3.62-15.62-3.09-24c0.54-8.38,2.86-16.75,6.97-25.11c4.11-8.36,9.32-15.3,15.63-20.85c6.31-5.54,13.28-9.61,20.89-12.21
			c1.9-0.65,3.83-1.2,5.79-1.64l1.42,8.76c-1.53,0.31-3.7,0.79-5.52,1.33c-6.76,2.02-12.95,5.36-18.57,10.03
			c-5.62,4.67-10.2,10.61-13.74,17.82c-3.54,7.21-5.45,14.46-5.72,21.76c-0.27,7.3,0.86,14.25,3.4,20.83
			c2.53,6.59,6.33,12.6,11.37,18.04c5.05,5.44,11.12,9.9,18.21,13.39c7.09,3.49,14.33,5.57,21.72,6.24
			c7.39,0.68,14.47,0.01,21.23-2.01c6.76-2.01,12.95-5.36,18.57-10.03c5.61-4.67,10.19-10.61,13.74-17.82
			c3.54-7.21,5.45-14.46,5.72-21.76c0.27-7.3-0.86-14.24-3.4-20.83c-0.68-1.77-1.63-3.79-2.32-5.19l7.67-4.61"/>
	</g>
</g>
<g>
	<path d="M156.05,581.93l38.51,24.16l65.06-103.67l13.82,8.67l-65.06,103.67l38.51,24.16l-8.05,12.84l-90.84-57L156.05,581.93z"/>
	<path class="st1" d="M205.35,619.6l3.04-4.84l38.51,24.16l-3.04,4.84L205.35,619.6z M256.3,507.71l3.32-5.29l13.82,8.67l-3.32,5.29
		L256.3,507.71z M153.02,586.76l3.04-4.84l38.51,24.16l-3.04,4.84L153.02,586.76z"/>
</g>
</svg>
