<svg version="1.1" id="Layer_1" xmlns="http://www.w3.org/2000/svg" xmlns:xlink="http://www.w3.org/1999/xlink" x="0px" y="0px"
	 viewBox="0 0 356.33 306.88" style="enable-background:new 0 0 356.33 306.88;" xml:space="preserve">
<style type="text/css">
	.st0{fill:#6B6B6B;}
	.st1{fill:#22803F;}
	.st2{fill:#50B848;}
</style>
<g>
	<g>
		<path d="M133.47,268.38c-19.48,0-37.34-3.37-53.57-10.1c-16.23-6.73-30.3-16.05-42.2-27.96c-11.9-11.9-21.16-26.09-27.78-42.56
			C3.3,171.29,0,153.43,0,134.19c0-19.24,3.3-37.09,9.92-53.57c6.61-16.47,15.87-30.66,27.78-42.57S63.67,16.84,79.9,10.1
			C96.13,3.37,113.99,0,133.47,0c19.48,0,37.34,3.37,53.57,10.1c16.23,6.74,30.3,16.05,42.2,27.96c11.9,11.9,21.16,26.1,27.78,42.57
			c6.61,16.47,9.92,34.33,9.92,53.57c0,19.24-3.31,37.1-9.92,53.57c-6.62,16.47-15.87,30.66-27.78,42.56
			c-11.9,11.9-25.97,21.23-42.2,27.96C170.8,265.01,152.95,268.38,133.47,268.38z M133.47,240.24c14.91,0,28.55-2.76,40.94-8.3
			c12.38-5.53,23.03-13.1,31.93-22.73c8.89-9.61,15.81-20.86,20.74-33.73c4.93-12.86,7.4-26.63,7.4-41.3
			c0-14.67-2.47-28.44-7.4-41.3c-4.93-12.86-11.85-24.11-20.74-33.73c-8.9-9.62-19.54-17.19-31.93-22.73
			c-12.39-5.53-26.03-8.3-40.94-8.3c-14.91,0-28.56,2.77-40.94,8.3C80.14,41.97,69.5,49.54,60.6,59.16
			c-8.9,9.62-15.81,20.86-20.74,33.73c-4.93,12.87-7.4,26.64-7.4,41.3c0,14.67,2.46,28.44,7.4,41.3
			c4.93,12.87,11.84,24.11,20.74,33.73c8.89,9.62,19.54,17.2,31.93,22.73C104.91,237.48,118.55,240.24,133.47,240.24z"/>
	</g>
</g>
<g>
	<path class="st0" d="M134.03,253.84c-17.29,0-33.14-2.99-47.54-8.96c-14.41-5.97-26.89-14.25-37.46-24.81
		c-10.57-10.57-18.78-23.16-24.65-37.78c-5.87-14.62-8.8-30.46-8.8-47.54c0-17.07,2.93-32.92,8.8-47.54
		C30.25,72.59,38.46,60,49.03,49.43S72.08,30.6,86.49,24.62c14.41-5.97,30.25-8.96,47.54-8.96c17.29,0,33.14,2.99,47.54,8.96
		c14.41,5.98,26.89,14.25,37.46,24.81s18.78,23.16,24.65,37.78c5.87,14.62,8.8,30.47,8.8,47.54c0,17.08-2.94,32.92-8.8,47.54
		c-5.87,14.62-14.09,27.21-24.65,37.78c-10.57,10.57-23.05,18.84-37.46,24.81C167.16,250.85,151.32,253.84,134.03,253.84z
		 M133.47,240.24c14.91,0,28.55-2.76,40.94-8.3c12.38-5.53,23.03-13.1,31.93-22.73c8.89-9.61,15.81-20.86,20.74-33.73
		c4.93-12.86,7.4-26.63,7.4-41.3c0-14.67-2.47-28.44-7.4-41.3c-4.93-12.86-11.85-24.11-20.74-33.73
		c-8.9-9.62-19.54-17.19-31.93-22.73c-12.39-5.53-26.03-8.3-40.94-8.3c-14.91,0-28.56,2.77-40.94,8.3
		C80.14,41.97,69.5,49.54,60.6,59.16c-8.9,9.62-15.81,20.86-20.74,33.73c-4.93,12.87-7.4,26.64-7.4,41.3
		c0,14.67,2.46,28.44,7.4,41.3c4.93,12.87,11.84,24.11,20.74,33.73c8.89,9.62,19.54,17.2,31.93,22.73
		C104.91,237.48,118.55,240.24,133.47,240.24z"/>
</g>
<g>
	<g>
		<path class="st1" d="M216.87,306.88c37.24-68.32,139.47-172.04,139.47-172.04l-25.39-27.81c0,0-38.78,27.81-114.07,178.25
			c-32.08-78.33-65.53-97.51-65.53-97.51l-25.39,27.81C125.94,215.58,186.24,250.92,216.87,306.88z"/>
	</g>
	<path class="st2" d="M342.58,119.67l-11.54-12.63c0,0-38.78,27.81-114.07,178.25c-32.08-78.33-65.53-97.51-65.53-97.51
		l-12.72,14.01c19.3,13.49,56.28,53.67,78.25,93.8C247.05,240.4,315.83,147.73,342.58,119.67z"/>
</g>
</svg>