<svg version="1.1" id="Layer_1" xmlns="http://www.w3.org/2000/svg" xmlns:xlink="http://www.w3.org/1999/xlink" x="0px" y="0px"
	 viewBox="0 0 2079.44 306.88" style="enable-background:new 0 0 2079.44 306.88;" xml:space="preserve">
<style type="text/css">
	.st0{fill:#6B6B6B;}
	.st1{fill:#22803F;}
	.st2{fill:#50B848;}
</style>
<g>
	<path d="M1912.42,6.49h160.52v28.14h-130.22v80.08h121.56v28.14h-121.56v90.9h136.71v28.14h-167.01V6.49z"/>
	<path class="st0" d="M1912.42,249.21h167.01v12.68h-167.01V249.21z M1942.72,130.17h121.56v12.68h-121.56V130.17z M1942.72,21.95
		h130.22v12.68h-130.22V21.95z"/>
</g>
<g>
	<path d="M281.97,6.49h30.3v108.22h136.35V6.49h30.3v255.39h-30.3V142.85H312.27v119.04h-30.3V6.49z"/>
	<path d="M542.4,6.49h160.52v28.14H572.7v80.08h121.56v28.14H572.7v90.9h136.71v28.14H542.4V6.49z"/>
	<path d="M1157.43,6.49h45.09l86.57,200.2h0.72l87.29-200.2h44.01v255.39h-30.3V47.62h-0.72l-91.63,214.27h-18.4l-91.62-214.27
		h-0.72v214.27h-30.3V6.49z"/>
	<path d="M1567.57,6.49h28.5l108.58,255.39h-35.35l-25.97-62.77h-127.69l-26.33,62.77h-34.27L1567.57,6.49z M1581.28,45.45h-0.72
		l-53.02,125.53h104.25L1581.28,45.45z"/>
	<path d="M1876.72,34.63h-84.41v227.26H1762V34.63h-84.41V6.49h199.12V34.63z"/>
</g>
<path class="st0" d="M312.27,248.54v13.34h-30.3v-13.34H312.27z M478.92,248.54v13.34h-30.3v-13.34H478.92z M312.27,130.17h136.35
	v12.68H312.27V130.17z"/>
<path class="st0" d="M1187.73,248.51v13.38h-30.3v-13.38H1187.73z M1304.26,248.51l-5.79,13.38h-18.4l-5.79-13.38 M1421.12,248.51
	v13.38h-30.3v-13.38"/>
<path class="st0" d="M1460.15,250.26h34.02l-4.88,11.63h-34.27L1460.15,250.26 M1699.6,250.26l5.05,11.63h-35.35l-4.81-11.63H1699.6
	 M1700.36,250.26 M1522.38,187.53h114.56l6.39,11.59h-127.69L1522.38,187.53z"/>
<g>
	<g>
		<path d="M858.03,268.38c-19.48,0-37.34-3.37-53.57-10.1c-16.23-6.73-30.3-16.05-42.2-27.96c-11.9-11.9-21.16-26.09-27.78-42.56
			c-6.62-16.47-9.92-34.33-9.92-53.57c0-19.24,3.3-37.09,9.92-53.57c6.61-16.47,15.87-30.66,27.78-42.57s25.97-21.22,42.2-27.96
			C820.7,3.37,838.55,0,858.03,0c19.48,0,37.34,3.37,53.57,10.1c16.23,6.74,30.3,16.05,42.2,27.96s21.16,26.1,27.78,42.57
			c6.61,16.47,9.92,34.33,9.92,53.57c0,19.24-3.31,37.1-9.92,53.57c-6.62,16.47-15.87,30.66-27.78,42.56
			c-11.9,11.9-25.97,21.23-42.2,27.96C895.37,265.01,877.51,268.38,858.03,268.38z M858.03,240.24c14.91,0,28.55-2.76,40.94-8.3
			c12.38-5.53,23.03-13.1,31.93-22.73c8.89-9.61,15.81-20.86,20.74-33.73c4.93-12.86,7.4-26.63,7.4-41.3
			c0-14.67-2.47-28.44-7.4-41.3c-4.93-12.86-11.85-24.11-20.74-33.73c-8.9-9.62-19.54-17.19-31.93-22.73
			c-12.39-5.53-26.03-8.3-40.94-8.3c-14.91,0-28.56,2.77-40.94,8.3c-12.39,5.54-23.03,13.11-31.93,22.73
			c-8.9,9.62-15.81,20.86-20.74,33.73c-4.93,12.87-7.4,26.64-7.4,41.3c0,14.67,2.46,28.44,7.4,41.3
			c4.93,12.87,11.84,24.11,20.74,33.73c8.89,9.62,19.54,17.2,31.93,22.73C829.47,237.48,843.12,240.24,858.03,240.24z"/>
	</g>
</g>
<g>
	<path class="st0" d="M858.59,253.85c-17.29,0-33.14-2.99-47.54-8.96c-14.41-5.97-26.89-14.25-37.46-24.81
		c-10.57-10.57-18.78-23.16-24.65-37.78c-5.87-14.62-8.8-30.46-8.8-47.54c0-17.07,2.93-32.92,8.8-47.54
		c5.87-14.62,14.09-27.21,24.65-37.78c10.57-10.57,23.05-18.83,37.46-24.81c14.41-5.97,30.25-8.96,47.54-8.96
		c17.29,0,33.14,2.99,47.54,8.96c14.41,5.98,26.89,14.25,37.46,24.81c10.57,10.57,18.78,23.16,24.65,37.78
		c5.87,14.62,8.8,30.47,8.8,47.54c0,17.08-2.94,32.92-8.8,47.54c-5.87,14.62-14.09,27.21-24.65,37.78
		c-10.57,10.57-23.05,18.84-37.46,24.81C891.73,250.86,875.88,253.85,858.59,253.85z M858.03,240.24c14.91,0,28.55-2.76,40.94-8.3
		c12.38-5.53,23.03-13.1,31.93-22.73c8.89-9.61,15.81-20.86,20.74-33.73c4.93-12.86,7.4-26.63,7.4-41.3c0-14.67-2.47-28.44-7.4-41.3
		c-4.93-12.86-11.85-24.11-20.74-33.73c-8.9-9.62-19.54-17.19-31.93-22.73c-12.39-5.53-26.03-8.3-40.94-8.3
		c-14.91,0-28.56,2.77-40.94,8.3c-12.39,5.54-23.03,13.11-31.93,22.73c-8.9,9.62-15.81,20.86-20.74,33.73
		c-4.93,12.87-7.4,26.64-7.4,41.3c0,14.67,2.46,28.44,7.4,41.3c4.93,12.87,11.84,24.11,20.74,33.73
		c8.89,9.62,19.54,17.2,31.93,22.73C829.47,237.48,843.12,240.24,858.03,240.24z"/>
</g>
<g>
	<g>
		<path class="st1" d="M941.43,306.88c37.24-68.32,139.47-172.04,139.47-172.04l-25.39-27.81c0,0-38.78,27.81-114.07,178.25
			c-32.08-78.33-65.53-97.51-65.53-97.51l-25.39,27.81C850.51,215.58,910.81,250.92,941.43,306.88z"/>
	</g>
	<path class="st2" d="M1067.15,119.67l-11.54-12.63c0,0-38.78,27.81-114.07,178.25c-32.08-78.33-65.53-97.51-65.53-97.51
		l-12.72,14.01c19.3,13.49,56.28,53.67,78.25,93.8C971.62,240.4,1040.39,147.73,1067.15,119.67z"/>
</g>
<path class="st0" d="M542.4,249.21h167.01v12.68H542.4V249.21z M572.7,130.17h121.56v12.68H572.7V130.17z M572.7,21.95h130.22v12.68
	H572.7V21.95z"/>
<g>
	<g>
		<path d="M239.77,218.31"/>
	</g>
</g>
<g>
	<g>
		<path d="M239.77,218.31c-3.24,4.24-6.75,8.24-10.53,12.02c-11.9,11.9-25.97,21.22-42.2,27.96c-16.23,6.73-34.09,10.1-53.57,10.1
			c-19.48,0-37.34-3.37-53.57-10.1c-16.23-6.74-30.3-16.05-42.2-27.96c-11.9-11.9-21.16-26.1-27.78-42.57
			C3.3,171.28,0,153.43,0,134.19S3.3,97.1,9.92,80.62c6.61-16.47,15.87-30.66,27.78-42.57S63.67,16.84,79.9,10.1
			C96.13,3.37,113.99,0,133.47,0c19.48,0,37.34,3.37,53.57,10.1c16.23,6.74,30.3,16.05,42.2,27.96c3.78,3.78,7.28,7.78,10.53,12.02
			l-26.69,17.2c-2.18-3.84-6.74-8.11-6.74-8.11c-8.9-9.62-19.54-17.19-31.93-22.73c-12.39-5.53-26.03-8.3-40.94-8.3
			c-14.91,0-28.56,2.77-40.94,8.3C80.14,41.97,69.5,49.54,60.6,59.16c-8.9,9.62-15.81,20.86-20.74,33.73
			c-4.93,12.87-7.4,26.64-7.4,41.3s2.46,28.44,7.4,41.3c4.93,12.86,11.84,24.11,20.74,33.73c8.89,9.62,19.54,17.19,31.93,22.73
			c12.38,5.53,26.03,8.3,40.94,8.3c14.91,0,28.55-2.77,40.94-8.3c12.38-5.54,23.03-13.11,31.93-22.73c0,0,4.56-4.27,6.74-8.11
			L239.77,218.31"/>
	</g>
</g>
<g>
	<path class="st0" d="M226.51,57.74 M213.08,67.27"/>
</g>
<g>
	<path class="st0" d="M226.4,210.64 M212.97,201.11 M226.4,210.64c-2.35,2.89-4.84,5.66-7.48,8.3
		c-10.57,10.57-23.05,18.83-37.46,24.81c-14.41,5.97-30.25,8.96-47.54,8.96c-17.29,0-33.14-2.99-47.54-8.96
		c-14.41-5.98-26.89-14.25-37.46-24.81c-10.57-10.57-18.78-23.16-24.65-37.78c-5.87-14.62-8.78-29.9-8.78-46.98
		s2.91-32.36,8.78-46.98C30.14,72.59,38.36,60,48.92,49.43S71.97,30.6,86.38,24.62c14.41-5.97,30.25-8.96,47.54-8.96
		c17.29,0,33.14,2.99,47.54,8.96c14.41,5.98,26.89,14.25,37.46,24.81c2.64,2.64,5.14,5.41,7.48,8.3l-13.43,9.53
		c-1.76-2.29-4.35-5.52-6.74-8.11c-8.9-9.62-19.54-17.19-31.93-22.73c-12.39-5.53-26.03-8.3-40.94-8.3
		c-14.91,0-28.56,2.77-40.94,8.3c-12.39,5.54-23.03,13.11-31.93,22.73c-8.9,9.62-15.81,20.86-20.74,33.73
		c-4.93,12.87-7.4,26.64-7.4,41.3s2.46,28.44,7.4,41.3c4.93,12.86,11.84,24.11,20.74,33.73c8.89,9.62,19.54,17.19,31.93,22.73
		c12.38,5.53,26.03,8.3,40.94,8.3c14.91,0,28.55-2.77,40.94-8.3c12.38-5.54,23.03-13.11,31.93-22.73c2.39-2.59,4.98-5.82,6.74-8.11
		l13.97,9"/>
</g>
<path class="st0" d="M1762,24.02v10.6h-84.41v-10.6H1762z M1792.3,250.28v11.61H1762v-11.61H1792.3z M1876.72,24.02v10.6h-84.41
	v-10.6H1876.72z"/>
</svg>
